<svg width="50" height="50" viewBox="0 0 50 50" fill="none" xmlns="http://www.w3.org/2000/svg">
<path d="M9.625 37.75C11.75 36.125 14.125 34.8442 16.75 33.9075C19.375 32.9708 22.125 32.5017 25 32.5C27.875 32.5 30.625 32.9692 33.25 33.9075C35.875 34.8458 38.25 36.1267 40.375 37.75C41.8333 36.0417 42.9692 34.1042 43.7825 31.9375C44.5958 29.7708 45.0017 27.4583 45 25C45 19.4583 43.0525 14.7392 39.1575 10.8425C35.2625 6.94583 30.5433 4.99833 25 5C19.4583 5 14.7392 6.94833 10.8425 10.845C6.94583 14.7417 4.99833 19.46 5 25C5 27.4583 5.40667 29.7708 6.22 31.9375C7.03333 34.1042 8.16833 36.0417 9.625 37.75ZM25 27.5C22.5417 27.5 20.4683 26.6567 18.78 24.97C17.0917 23.2833 16.2483 21.21 16.25 18.75C16.25 16.2917 17.0942 14.2183 18.7825 12.53C20.4708 10.8417 22.5433 9.99833 25 10C27.4583 10 29.5317 10.8442 31.22 12.5325C32.9083 14.2208 33.7517 16.2933 33.75 18.75C33.75 21.2083 32.9067 23.2817 31.22 24.97C29.5333 26.6583 27.46 27.5017 25 27.5ZM25 50C21.5417 50 18.2917 49.3433 15.25 48.03C12.2083 46.7167 9.5625 44.9358 7.3125 42.6875C5.0625 40.4375 3.28167 37.7917 1.97 34.75C0.658334 31.7083 0.00166667 28.4583 0 25C0 21.5417 0.656667 18.2917 1.97 15.25C3.28333 12.2083 5.06417 9.5625 7.3125 7.3125C9.5625 5.0625 12.2083 3.28167 15.25 1.97C18.2917 0.658334 21.5417 0.00166667 25 0C28.4583 0 31.7083 0.656667 34.75 1.97C37.7917 3.28333 40.4375 5.06417 42.6875 7.3125C44.9375 9.5625 46.7192 12.2083 48.0325 15.25C49.3458 18.2917 50.0017 21.5417 50 25C50 28.4583 49.3433 31.7083 48.03 34.75C46.7167 37.7917 44.9358 40.4375 42.6875 42.6875C40.4375 44.9375 37.7917 46.7192 34.75 48.0325C31.7083 49.3458 28.4583 50.0017 25 50Z" fill="#FFC107"/>
</svg>
