<svg width="136" height="28" viewBox="0 0 136 28" fill="none" xmlns="http://www.w3.org/2000/svg">
<path d="M135.965 13.9497L131.929 16.8102L135.338 22.296C134.045 24.5687 130.323 26.9982 127.776 27.6643L125.699 24.5295C128.05 23.7067 129.656 22.8054 130.558 21.8258L126.913 16.1049L132.556 11.6378L135.965 13.9497Z" fill="#FFC107"/>
<path d="M128.617 24.4904L127.441 25.0389C123.914 26.6847 122.425 27.3508 118.977 27.6643L114.393 25.2349C114.079 24.1769 113.922 23.1189 113.922 22.0609C113.922 17.1237 116.822 12.735 120.035 11.5986L124.776 14.6158L123.993 20.2584L117.802 21.6299C117.802 22.5703 117.958 23.3932 118.233 24.1769C120.505 24.1769 122.621 23.5499 124.972 22.3352L126.853 21.3556L128.617 24.4904ZM120.976 18.6127L120.936 15.4387C119.604 16.2616 118.311 17.9857 117.958 20.2192L120.976 18.6127Z" fill="#FFC107"/>
<path d="M114.097 14.3416L112.843 18.4951L110.296 16.771L106.22 21.5907L104.575 27.7427L100.813 25.274L104.34 11.7162L108.101 14.0673L107.043 17.3196L110.766 12.1864L114.097 14.3416Z" fill="#FFC107"/>
<path d="M104.263 24.4904L96.9355 27.6643L93.5265 25.5483L89.7648 27.6643L85.9639 25.3132L89.4513 12.1864L93.213 14.4199L90.5093 23.3932L94.8979 20.4935L96.9355 12.1864L100.541 14.5375L98.0719 23.6283L102.421 21.3556L104.263 24.4904Z" fill="#FFC107"/>
<path d="M89.5083 24.4904L82.2983 27.6643L78.6934 25.3132L81.6322 13.9105H79.5554L80.4567 10.7758H82.4551L83.5522 6.54382L87.9409 5.36829L86.4911 10.7758H88.176L87.2748 13.9105H85.6682L83.0428 23.7459L87.7058 21.3556L89.5083 24.4904Z" fill="#FFC107"/>
<path d="M82.2311 24.4904L74.9036 27.6643L71.7688 25.7051L74.1591 17.1237L67.3409 27.6643L63.54 25.3132L67.145 11.677L70.9459 14.0281L68.203 21.3948L74.2766 12.1864L78.391 14.7334L76.0399 23.6283L80.3894 21.3556L82.2311 24.4904Z" fill="#FFC107"/>
<path d="M67.0844 24.4904L65.9088 25.0389C62.3822 26.6847 60.8932 27.3508 57.4449 27.6643L52.8604 25.2349C52.5469 24.1769 52.3901 23.1189 52.3901 22.0609C52.3901 17.1237 55.2898 12.735 58.5029 11.5986L63.2443 14.6158L62.4606 20.2584L56.2694 21.6299C56.2694 22.5703 56.4261 23.3932 56.7004 24.1769C58.9731 24.1769 61.0891 23.5499 63.4402 22.3352L65.321 21.3556L67.0844 24.4904ZM59.4434 18.6127L59.4042 15.4387C58.0719 16.2616 56.7788 17.9857 56.4261 20.2192L59.4434 18.6127Z" fill="#FFC107"/>
<path d="M57.6439 2.46863L44.6738 27.7035L37.7773 25.2349L40.05 0.431029L44.0861 3.25232L42.1268 23.4324L53.8822 0L57.6439 2.46863Z" fill="#FFC107"/>
<path d="M38.4614 24.4904L31.2515 27.6643L27.6465 25.3132L30.5853 13.9105H28.5085L29.4098 10.7758H31.4082L32.5054 6.54382L36.894 5.36829L35.4442 10.7758H37.1292L36.2279 13.9105H34.6213L31.996 23.7459L36.6589 21.3556L38.4614 24.4904Z" fill="#FFC107"/>
<path d="M31.1908 24.4904L30.0153 25.0389C26.4886 26.6847 24.9996 27.3508 21.5514 27.6643L16.9668 25.2349C16.6533 24.1769 16.4966 23.1189 16.4966 22.0609C16.4966 17.1237 19.3962 12.735 22.6094 11.5986L27.3507 14.6158L26.567 20.2584L20.3759 21.6299C20.3759 22.5703 20.5326 23.3932 20.8069 24.1769C23.0796 24.1769 25.1956 23.5499 27.5466 22.3352L29.4275 21.3556L31.1908 24.4904ZM23.5498 18.6127L23.5106 15.4387C22.1783 16.2616 20.8853 17.9857 20.5326 20.2192L23.5498 18.6127Z" fill="#FFC107"/>
<path d="M18.9261 10.2664C17.4763 13.7538 12.735 18.4167 8.85571 20.3368L6.54382 16.6534L3.68335 27.6643L0 25.2349L4.62378 7.3667L8.22876 10.1488L6.62219 16.3792C11.0501 14.224 14.5375 10.2272 15.3212 8.3855C13.4011 6.66138 8.11121 5.3291 5.36829 4.8197L4.34949 0.391846C7.91528 0.626952 14.8901 2.27271 17.7114 4.74133L18.9261 10.2664Z" fill="#FFC107"/>
</svg>
